# xmcd
#
# Track frame offsets: 
#        150
#        24347
#        39347
#        61082
#        112117
#        115936
#        136832
#        162722
#        193567
#
# Disc length: 2997 seconds
#
# Revision: 0
# Processed by: cddbd v1.5.2PL0 Copyright (c) Steve Scherf et al.
# Submitted via: ExactAudioCopy v0.99pb3
#
DISCID=740bb309
DTITLE=Various Artist - Bass Sampler
DYEAR=1900
DGENRE=Other
TTITLE0=Brian Bromberg - Come Together (Lennon\\McCartney)
TTITLE1=Milt Hinton - Joshua Fit the Battle of Jericho
TTITLE2=Michel Jonasz - Le lac gele
TTITLE3=Michel Jonasz - Le temps pass e
TTITLE4=Track 2
TTITLE5=Track 1
TTITLE6=Patricia Barber - Regular Pleasures
TTITLE7=Roger Waters - Three Wishes
TTITLE8=Dead Can Dance - Yulunga (Spirit Dance)
EXTD=
EXTT0=
EXTT1=
EXTT2=
EXTT3=
EXTT4=
EXTT5=
EXTT6=
EXTT7=
EXTT8=
PLAYORDER=
